<svg xmlns="http://www.w3.org/2000/svg" viewBox="0 0 128 128">
  <defs>
    <linearGradient id="bg" x1="0%" y1="0%" x2="100%" y2="100%">
      <stop offset="0%" style="stop-color:#6366f1"/>
      <stop offset="100%" style="stop-color:#8b5cf6"/>
    </linearGradient>
  </defs>
  <!-- Background -->
  <rect width="128" height="128" rx="24" fill="url(#bg)"/>
  <!-- Brain shape simplified -->
  <g fill="white">
    <!-- Left hemisphere -->
    <path d="M35 45c-8 5-12 15-10 25 1 8 6 15 12 18 3 2 8 3 12 2 2-1 3-3 3-5V50c0-3-2-6-5-7-4-1-8 0-12 2z" opacity="0.9"/>
    <path d="M40 52c-4 3-6 9-5 15 1 5 4 9 8 10" stroke="white" stroke-width="2" fill="none"/>
    <!-- Right hemisphere -->
    <path d="M93 45c8 5 12 15 10 25-1 8-6 15-12 18-3 2-8 3-12 2-2-1-3-3-3-5V50c0-3 2-6 5-7 4-1 8 0 12 2z" opacity="0.9"/>
    <path d="M88 52c4 3 6 9 5 15-1 5-4 9-8 10" stroke="white" stroke-width="2" fill="none"/>
    <!-- Center connection -->
    <path d="M55 55c2 0 4 1 5 3 1 2 3 3 5 3h3c2 0 4-1 5-3 1-2 3-3 5-3" stroke="white" stroke-width="3" fill="none" stroke-linecap="round"/>
    <path d="M60 65h8" stroke="white" stroke-width="3" fill="none" stroke-linecap="round"/>
    <path d="M58 75c3 2 6 2 9 0" stroke="white" stroke-width="3" fill="none" stroke-linecap="round"/>
  </g>
</svg>
