<?xml version="1.0" standalone="no"?><!DOCTYPE svg PUBLIC "-//W3C//DTD SVG 1.1//EN" "http://www.w3.org/Graphics/SVG/1.1/DTD/svg11.dtd"><svg t="1700000000000" class="icon" viewBox="0 0 1024 1024" version="1.1" xmlns="http://www.w3.org/2000/svg" p-id="1000" xmlns:xlink="http://www.w3.org/1999/xlink" width="200" height="200"><defs><linearGradient id="kimiGradient" x1="0%" y1="0%" x2="100%" y2="100%"><stop offset="0%" style="stop-color:#6366F1;stop-opacity:1" /><stop offset="100%" style="stop-color:#8B5CF6;stop-opacity:1" /></linearGradient></defs><path d="M512 64C264.6 64 64 264.6 64 512s200.6 448 448 448 448-200.6 448-448S759.4 64 512 64z m0 820c-205.4 0-372-166.6-372-372s166.6-372 372-372 372 166.6 372 372-166.6 372-372 372z" fill="url(#kimiGradient)" p-id="1001"></path><path d="M512 220c-161.1 0-292 130.9-292 292s130.9 292 292 292 292-130.9 292-292-130.9-292-292-292z m0 508c-119.3 0-216-96.7-216-216s96.7-216 216-216 216 96.7 216 216-96.7 216-216 216z" fill="url(#kimiGradient)" opacity="0.6" p-id="1002"></path><circle cx="512" cy="512" r="120" fill="url(#kimiGradient)" p-id="1003"></circle><path d="M512 340c-95 0-172 77-172 172s77 172 172 172 172-77 172-172-77-172-172-172z m0 296c-68.5 0-124-55.5-124-124s55.5-124 124-124 124 55.5 124 124-55.5 124-124 124z" fill="url(#kimiGradient)" opacity="0.3" p-id="1004"></path></svg>
